<svg xmlns="http://www.w3.org/2000/svg" width="200" height="60" viewBox="0 0 200 60" fill="none">
  <path d="M48.5938 42L31.4062 10.4688H31.2188V42H25.4375V3.375H34.0312L51.2031 35.0156H51.4062V3.375H57.1875V42H48.5938Z" fill="#D4AF37"/>
  <path d="M87.1562 42L83.875 33.8438H67.5625L64.2812 42H58.0312L72.6562 3.375H78.7969L93.4219 42H87.1562ZM69.25 28.7344H82.1875L76.1719 11.1562H75.25L69.25 28.7344Z" fill="#D4AF37"/>
  <path d="M97.3281 42V3.375H109.109C112.453 3.375 115.375 4.05469 117.875 5.41406C120.375 6.76562 122.289 8.6875 123.617 11.1797C124.945 13.6719 125.609 16.4688 125.609 19.5703V25.8047C125.609 28.9062 124.945 31.7031 123.617 34.1953C122.289 36.6875 120.375 38.6094 117.875 39.9609C115.375 41.3203 112.453 42 109.109 42H97.3281ZM103.172 37.1719H108.922C111.359 37.1719 113.398 36.6953 115.039 35.7422C116.695 34.7891 117.945 33.4688 118.789 31.7812C119.633 30.0781 120.062 28.1484 120.078 25.9922V19.3672C120.078 17.1953 119.648 15.25 118.789 13.5312C117.93 11.7969 116.688 10.4688 115.062 9.54688C113.438 8.625 111.422 8.15625 109.016 8.15625H103.172V37.1719Z" fill="#D4AF37"/>
  <path d="M147.266 27.0938H134.188V42H128.344V3.375H149.766V8.15625H134.188V22.3438H147.266V27.0938Z" fill="#D4AF37"/>
  <path d="M170.5 42.4688C167.5 42.4688 164.812 41.8125 162.438 40.5C160.078 39.1719 158.227 37.3438 156.883 35.0156C155.539 32.6719 154.867 30 154.867 27V18.375C154.867 15.375 155.539 12.7109 156.883 10.3828C158.227 8.05469 160.078 6.23438 162.438 4.92188C164.812 3.60938 167.5 2.95312 170.5 2.95312C173.5 2.95312 176.18 3.60938 178.539 4.92188C180.914 6.23438 182.773 8.05469 184.117 10.3828C185.461 12.7109 186.133 15.375 186.133 18.375V27C186.133 30 185.461 32.6719 184.117 35.0156C182.773 37.3438 180.914 39.1719 178.539 40.5C176.18 41.8125 173.5 42.4688 170.5 42.4688ZM170.5 37.6875C172.625 37.6875 174.5 37.2344 176.125 36.3281C177.75 35.4062 179.023 34.1562 179.945 32.5781C180.883 31 181.352 29.2031 181.352 27.1875V18.1875C181.352 16.1719 180.883 14.375 179.945 12.7969C179.023 11.2031 177.75 9.94531 176.125 9.02344C174.5 8.10156 172.625 7.64062 170.5 7.64062C168.375 7.64062 166.492 8.10156 164.852 9.02344C163.227 9.94531 161.953 11.2031 161.031 12.7969C160.109 14.375 159.648 16.1719 159.648 18.1875V27.1875C159.648 29.2031 160.109 31 161.031 32.5781C161.953 34.1562 163.227 35.4062 164.852 36.3281C166.492 37.2344 168.375 37.6875 170.5 37.6875Z" fill="#D4AF37"/>
  <path d="M189.953 42V3.375H195.797V37.1719H212.109V42H189.953Z" fill="#D4AF37"/>
</svg>